# xmcd
#
# Track frame offsets:
#	150
#	19366
#	35313
#	50355
#	68685
#	87246
#	106626
#	125499
#	139242
#	156831
#	175312
#	192660
#
# Disc length: 2818 seconds
#
# Revision: 0
# Processed by: cddbd v1.5.2PL0 Copyright (c) Steve Scherf et al.
# Submitted via: EasyCDDAExtractor 15.3.0.1
#
DISCID=a10b000c
DTITLE=Pablo Alboran - Tanto 2
DYEAR=2013
DGENRE=Latin
TTITLE0=Tanto
TTITLE1=Donde Esta El Amor (Featuring Jesse and Joy)
TTITLE2=Extasis (Radio Edit)
TTITLE3=Deshidratandome
TTITLE4=Quien
TTITLE5=El Beso
TTITLE6=Sere
TTITLE7=Toda La Noche
TTITLE8=En Brazos De Ella
TTITLE9=Solamente Tu (Bonus Track)
TTITLE10=Te He Echado De Menos (Bonus Track)
TTITLE11=Perdoname (Bonus Track)
EXTD=
EXTT0=
EXTT1=
EXTT2=
EXTT3=
EXTT4=
EXTT5=
EXTT6=
EXTT7=
EXTT8=
EXTT9=
EXTT10=
EXTT11=
PLAYORDER=
